<?xml version="1.0" encoding="utf-8"?><svg xmlns="http://www.w3.org/2000/svg" xmlns:xlink="http://www.w3.org/1999/xlink" width="1200" height="212" viewBox="0 0 1200 212"><title>Bitrix24 en logo - free.arinco.org</title><a xlink:href="http://free.arinco.org/mail/bitrix/settings.html"><path fill="none" stroke="#006198" stroke-width="7.898" d="M1126.041 156.898c36.818 0 66.77-29.952 66.77-66.77 0-36.816-29.953-66.771-66.77-66.771-36.818 0-66.77 29.952-66.77 66.769 0 36.817 29.95 66.772 66.77 66.772z"/><path fill="#006198" d="M1166.969 99.735h-45.572V54.16h9.668v35.906h35.904v9.669zM706.887 207.144c8.217-100.688 99.166-103.729 99.166-146.011 0-18.557-14.908-25.553-31.027-25.553-20.379 0-37.111 6.692-51.713 13.688l-9.732-28.289c16.424-7.908 39.545-16.122 66.922-16.122 43.195 0 64.184 22.206 64.184 52.626 0 56.881-77.873 67.835-90.344 118.632h92.172v31.029H706.887zm159.088-48.977v-24.334L965.141 5.161h26.16v123.195h29.814v29.81h-29.814v48.977h-35.893v-48.977h-89.433v.001zm40.459-29.2c4.563 0 17.945-.611 25.25-.611h23.727V99.764c0-16.122 1.518-33.462 1.822-39.24l-50.799 68.443z"/><path fill="#1FC3F3" d="M7.189 13.732h56.64c26.275 0 45.264 3.829 56.966 11.484 11.701 7.657 17.553 19.752 17.553 36.281 0 11.138-2.871 20.404-8.613 27.798-5.743 7.396-14.01 12.052-24.797 13.964v1.305c13.397 2.524 23.25 7.504 29.56 14.943 6.307 7.439 9.462 17.511 9.462 30.212 0 17.142-5.983 30.562-17.945 40.262-11.964 9.703-28.604 14.551-49.919 14.551H7.189v-190.8zM38.38 92.558h30.017c13.051 0 22.578-2.065 28.581-6.199 6.003-4.131 9.005-11.158 9.005-21.077 0-8.96-3.243-15.443-9.724-19.446-6.482-4.001-16.77-6.003-30.865-6.003H38.38v52.725zm0 25.318v60.425h33.149c13.051 0 22.904-2.5 29.561-7.504 6.655-5.002 9.983-12.897 9.983-23.688 0-9.918-3.394-17.27-10.18-22.056-6.786-4.783-17.096-7.178-30.93-7.178H38.38zm140.165-95.922c0-5.481 1.5-9.7 4.502-12.66 3.001-2.957 7.286-4.437 12.855-4.437 5.394 0 9.592 1.48 12.594 4.437 3.002 2.959 4.502 7.178 4.502 12.66 0 5.22-1.5 9.331-4.502 12.333-3.001 3.001-7.2 4.502-12.594 4.502-5.569 0-9.854-1.501-12.855-4.502-3.001-3.002-4.502-7.114-4.502-12.333zm32.497 182.579h-30.669V60.192h30.669v144.341zm97.619-22.186c7.483 0 14.964-1.174 22.448-3.523v23.1c-3.394 1.48-7.766 2.718-13.116 3.72-5.351.999-10.898 1.5-16.64 1.5-29.061 0-43.589-15.312-43.589-45.938V83.423h-19.707V69.85l21.142-11.224 10.44-30.539h18.924v32.104h41.11v23.231h-41.11v77.26c0 7.396 1.847 12.854 5.546 16.378 3.697 3.525 8.549 5.287 14.552 5.287zM433.164 57.582c6.177 0 11.268.437 15.27 1.305l-3.001 28.581c-4.351-1.043-8.875-1.566-13.573-1.566-12.269 0-22.207 4.003-29.82 12.007-7.616 8.006-11.421 18.402-11.421 31.192v75.433H359.95V60.192h24.014l4.046 25.449h1.565c4.786-8.614 11.029-15.442 18.729-20.49 7.701-5.045 15.986-7.569 24.86-7.569zm40.197-35.628c0-5.481 1.502-9.7 4.505-12.66 3.001-2.957 7.284-4.437 12.853-4.437 5.394 0 9.594 1.48 12.595 4.437 3.003 2.959 4.502 7.178 4.502 12.66 0 5.22-1.499 9.331-4.502 12.333-3.001 3.001-7.201 4.502-12.595 4.502-5.568 0-9.852-1.501-12.853-4.502-3.003-3.002-4.505-7.114-4.505-12.333zm32.496 182.579h-30.669V60.192h30.669v144.341zm75.955-73.737l-48.417-70.604h34.976l32.887 50.507 33.15-50.507h34.713l-48.547 70.604 51.027 73.737h-34.715l-35.629-54.03-35.498 54.03h-34.716l50.769-73.737z"/></a></svg>